<?xml version="1.0" standalone="no"?>
<!DOCTYPE svg PUBLIC "-//W3C//DTD SVG 20010904//EN"
 "http://www.w3.org/TR/2001/REC-SVG-20010904/DTD/svg10.dtd">
<svg version="1.0" xmlns="http://www.w3.org/2000/svg"
 width="1014.000000pt" height="430.000000pt" viewBox="0 0 1014.000000 430.000000"
 preserveAspectRatio="xMidYMid meet">

<g transform="translate(0.000000,430.000000) scale(0.100000,-0.100000)"
fill="#000000" stroke="none">
<path d="M5270 3780 c-117 -8 -216 -28 -203 -40 4 -5 55 -29 112 -54 100 -43
187 -93 179 -101 -2 -2 -62 18 -134 45 -282 106 -571 156 -695 119 -67 -21
-83 -48 -88 -146 -15 -361 344 -816 764 -968 51 -19 88 -42 50 -32 -11 3 -40
11 -65 17 -178 45 -332 131 -481 269 -188 173 -317 416 -336 632 l-8 84 -145
3 c-575 12 -1219 -208 -1880 -643 -207 -137 -578 -423 -580 -448 0 -11 58 0
155 28 176 52 418 87 595 87 259 0 568 -65 710 -150 25 -15 52 -30 61 -34 82
-34 262 -190 341 -295 21 -29 43 -53 48 -53 6 0 10 88 10 230 l0 230 269 0
269 0 124 -230 c67 -126 126 -230 129 -230 3 0 61 103 130 230 l124 230 278 0
277 0 0 -444 c0 -245 3 -447 8 -449 16 -10 83 45 117 98 47 70 119 128 220
176 145 68 233 81 648 94 114 4 207 9 207 11 0 3 -13 34 -30 71 -51 112 -36
149 70 181 121 37 373 93 813 182 581 118 655 140 728 212 62 62 176 323 163
374 -10 38 -68 77 -117 78 l-42 1 -31 -82 c-16 -46 -34 -86 -38 -90 -10 -10 1
67 20 131 8 27 14 55 14 62 0 15 -411 179 -585 233 -366 113 -838 231 -1170
291 -141 25 -373 57 -615 84 -86 10 -285 13 -390 6z m-490 -277 c122 -46 218
-93 305 -154 63 -43 168 -139 153 -139 -3 0 -37 14 -74 30 -37 17 -71 29 -75
28 -4 -2 13 -33 37 -71 24 -37 44 -70 44 -72 0 -3 -28 11 -62 29 -67 36 -124
54 -113 36 3 -5 38 -47 76 -92 38 -45 69 -86 69 -90 0 -4 -18 -1 -40 8 -21 9
-44 14 -50 12 -6 -2 21 -45 60 -96 38 -50 65 -92 59 -92 -15 0 -122 74 -204
140 -186 152 -337 362 -352 493 -5 41 -3 52 12 64 21 15 23 14 155 -34z m1586
-163 c181 -30 284 -51 474 -96 142 -33 139 -31 94 -55 -31 -16 -72 -22 -199
-30 -158 -9 -198 -8 -305 13 -77 15 -122 40 -169 96 -36 43 -49 50 -111 66
-38 10 -67 22 -64 27 10 16 98 9 280 -21z m532 -706 c-3 -3 -77 -27 -164 -54
-189 -57 -241 -77 -356 -137 -119 -61 -132 -83 -126 -204 3 -49 4 -89 2 -89
-9 0 -52 99 -63 143 -9 40 -9 52 4 78 16 30 79 75 164 119 54 27 323 113 417
134 71 15 132 20 122 10z"/>
<path d="M4220 1617 l0 -357 255 0 c196 0 257 3 260 13 3 6 4 167 3 356 l-3
344 -64 -99 c-36 -54 -91 -141 -124 -191 -33 -51 -63 -93 -67 -93 -4 0 -61 82
-125 183 -65 100 -122 186 -126 192 -5 5 -9 -149 -9 -348z"/>
<path d="M2750 964 c-19 -8 -50 -29 -67 -46 l-33 -32 0 30 c0 35 -16 54 -46
54 -42 0 -44 -14 -42 -276 l3 -249 28 -3 c53 -6 57 5 57 182 0 137 3 166 18
195 48 88 189 96 225 12 6 -14 13 -107 16 -206 l6 -180 28 -3 c53 -6 57 5 57
182 0 133 3 167 18 196 33 67 144 93 197 48 36 -32 44 -79 45 -250 0 -80 3
-153 6 -162 4 -10 18 -16 40 -16 45 0 46 7 42 231 -4 217 -13 248 -88 287 -80
40 -172 21 -240 -52 l-35 -36 -18 36 c-33 64 -138 92 -217 58z"/>
<path d="M3630 959 c-98 -44 -150 -123 -158 -236 -8 -118 45 -220 137 -268
106 -54 248 -30 328 56 67 73 88 216 46 310 -60 133 -223 197 -353 138z m202
-94 c48 -32 78 -96 78 -166 -1 -164 -181 -247 -293 -135 -85 85 -69 235 32
303 49 33 133 32 183 -2z"/>
<path d="M4293 950 c-29 -16 -56 -38 -62 -47 -9 -16 -10 -14 -11 9 0 54 -56
77 -84 36 -13 -19 -16 -60 -16 -246 0 -135 4 -231 10 -243 12 -22 59 -26 78
-7 8 8 12 62 12 175 0 183 7 209 63 243 40 25 123 27 155 4 40 -28 45 -53 51
-244 l6 -185 31 -3 c53 -5 56 7 52 220 -3 172 -5 197 -24 233 -45 87 -162 112
-261 55z"/>
<path d="M4835 952 c-58 -32 -110 -96 -126 -155 -16 -61 -7 -183 18 -232 47
-89 123 -135 223 -135 66 0 107 16 153 58 l27 26 0 -43 c0 -118 -89 -176 -223
-145 -109 26 -117 27 -132 14 -35 -29 -3 -68 78 -93 112 -35 235 -15 301 49
67 65 70 79 73 369 4 273 -1 306 -40 313 -25 5 -57 -26 -57 -55 l0 -25 -32 28
c-75 63 -178 73 -263 26z m207 -78 c60 -31 105 -132 92 -206 -19 -99 -102
-166 -191 -154 -90 12 -153 90 -153 187 0 147 128 235 252 173z"/>
<path d="M5492 954 c-97 -48 -146 -134 -146 -254 1 -90 24 -148 80 -202 53
-50 106 -71 184 -71 152 0 257 100 268 253 12 172 -102 300 -269 300 -50 0
-77 -6 -117 -26z m199 -80 c39 -19 77 -69 90 -117 35 -130 -66 -260 -189 -243
-90 12 -152 89 -152 187 0 148 127 235 251 173z"/>
<path d="M6145 968 c-64 -23 -113 -66 -144 -130 -27 -52 -31 -72 -31 -137 1
-122 53 -208 152 -251 214 -92 432 94 374 319 -35 137 -128 212 -260 210 -33
0 -74 -5 -91 -11z m186 -103 c87 -66 105 -204 37 -291 -26 -32 -91 -64 -133
-64 -88 0 -162 75 -172 174 -8 73 28 151 84 184 49 29 144 27 184 -3z"/>
<path d="M6699 960 c-62 -33 -89 -73 -89 -134 0 -86 39 -120 185 -164 79 -24
115 -51 115 -87 0 -51 -57 -82 -131 -72 -36 5 -61 18 -135 72 -19 14 -23 14
-45 -4 -23 -19 -23 -21 -9 -48 34 -61 155 -110 241 -96 150 22 215 149 128
248 -25 28 -50 41 -127 65 -110 34 -132 50 -132 96 0 44 30 64 95 64 47 0 66
-8 126 -51 19 -14 47 -6 56 16 19 52 -81 115 -181 115 -40 -1 -74 -7 -97 -20z"/>
<path d="M7234 961 c-92 -42 -154 -147 -154 -260 0 -164 107 -272 270 -273
106 -1 205 54 198 110 -4 37 -37 40 -87 6 -70 -46 -162 -43 -227 8 -25 20 -63
89 -64 116 0 9 45 12 193 12 210 0 217 2 217 56 0 82 -54 168 -133 214 -63 36
-148 41 -213 11z m184 -93 c33 -20 62 -64 62 -93 0 -13 -21 -15 -150 -15 -136
0 -150 2 -150 18 0 9 8 30 19 45 49 75 139 93 219 45z"/>
</g>
</svg>
